<?xml version="1.0" encoding="UTF-8" standalone="no"?>
<!-- Generator: Adobe Illustrator 17.0.0, SVG Export Plug-In . SVG Version: 6.00 Build 0)  -->

<svg
   xmlns:dc="http://purl.org/dc/elements/1.1/"
   xmlns:cc="http://creativecommons.org/ns#"
   xmlns:rdf="http://www.w3.org/1999/02/22-rdf-syntax-ns#"
   xmlns:svg="http://www.w3.org/2000/svg"
   xmlns="http://www.w3.org/2000/svg"
   xmlns:sodipodi="http://sodipodi.sourceforge.net/DTD/sodipodi-0.dtd"
   xmlns:inkscape="http://www.inkscape.org/namespaces/inkscape"
   version="1.1"
   id="Layer_1"
   x="0px"
   y="0px"
   width="42px"
   height="42px"
   viewBox="0 0 42 42"
   enable-background="new 0 0 42 42"
   xml:space="preserve"
   inkscape:version="0.91 r13725"
   sodipodi:docname="dominoinput.svg"><metadata
     id="metadata19"><rdf:RDF><cc:Work
         rdf:about=""><dc:format>image/svg+xml</dc:format><dc:type
           rdf:resource="http://purl.org/dc/dcmitype/StillImage" /><dc:title></dc:title></cc:Work></rdf:RDF></metadata><defs
     id="defs17"><pattern
       y="0"
       x="0"
       height="6"
       width="6"
       patternUnits="userSpaceOnUse"
       id="EMFhbasepattern" /></defs><sodipodi:namedview
     pagecolor="#ffffff"
     bordercolor="#666666"
     borderopacity="1"
     objecttolerance="10"
     gridtolerance="10"
     guidetolerance="10"
     inkscape:pageopacity="0"
     inkscape:pageshadow="2"
     inkscape:window-width="1920"
     inkscape:window-height="1027"
     id="namedview15"
     showgrid="false"
     inkscape:zoom="15.893067"
     inkscape:cx="38.840793"
     inkscape:cy="23.375023"
     inkscape:window-x="-8"
     inkscape:window-y="-8"
     inkscape:window-maximized="1"
     inkscape:current-layer="Layer_1" /><polygon
     style="fill:#3d6480"
     id="polygon5"
     points="32.01,31.153 30.666,32.497 35.893,37.723 32.746,37.723 32.747,39.624 39.136,39.621 39.136,33.296 37.236,33.296 37.236,36.378 " /><g
     id="g4240"
     transform="matrix(3.7928039,0,0,4.0073993,-205.44493,-57.020786)"><path
       style="fill:#eff9fe;fill-opacity:1;fill-rule:nonzero;stroke:#3d6480;stroke-width:0.40216368px;stroke-linecap:round;stroke-linejoin:round;stroke-miterlimit:4;stroke-dasharray:none;stroke-opacity:1"
       d="m 63.305669,18.782329 c 0,2.222472 -1.926166,4.021639 -4.296805,4.021639 -2.349489,0 -4.27564,-1.799167 -4.27564,-4.021639 0,-2.222485 1.926151,-4.02164 4.27564,-4.02164 2.370639,0 4.296805,1.799155 4.296805,4.02164 z"
       id="path4214"
       inkscape:connector-curvature="0" /><path
       style="fill:#3d6480;fill-opacity:1;fill-rule:nonzero;stroke:#3d6480;stroke-width:0.02116651px;stroke-linecap:round;stroke-linejoin:round;stroke-miterlimit:4;stroke-dasharray:none;stroke-opacity:1"
       d="m 60.617503,17.618163 c -0.105834,-0.02117 -0.169334,-0.04233 -0.232834,-0.105834 -0.169305,-0.127 -0.232805,-0.253991 -0.232805,-0.465658 0,-0.148164 0.02117,-0.23283 0.105805,-0.338664 0.0635,-0.08466 0.148167,-0.148163 0.254,-0.190497 0.0635,-0.04233 0.08467,-0.04233 0.211667,-0.04233 0.105833,-0.02117 0.127,0 0.211667,0.02117 0.105833,0.02117 0.211666,0.105834 0.296333,0.211664 0.1905,0.254 0.127,0.634997 -0.127,0.804322 -0.08467,0.0635 -0.148167,0.105833 -0.254,0.127 -0.08467,0.02117 -0.127,0.02117 -0.232833,-0.02117 z"
       id="path4216"
       inkscape:connector-curvature="0" /><path
       style="fill:#3d6480;fill-opacity:1;fill-rule:nonzero;stroke:none"
       d="m 58.564364,21.851468 c -0.127,-0.02117 -0.254,-0.105833 -0.3175,-0.232833 -0.0635,-0.08467 -0.0635,-0.338667 -0.0635,-2.116639 l 0,-1.629833 0.04233,-0.04233 c 0.02117,-0.04233 0.0635,-0.0635 0.105833,-0.08467 0.02117,0 0.148167,0 0.635,-0.02117 l 0.613834,0 0.04233,0.04233 c 0.04233,0.02117 0.08467,0.0635 0.105833,0.08467 l 0.02117,0.0635 0,1.778 c 0,0.994805 -0.02117,1.799138 -0.02117,1.841472 -0.02117,0.127 -0.148167,0.254 -0.296333,0.296333 -0.08467,0.04233 -0.08467,0.04233 -0.4445,0.04233 -0.232834,0 -0.359834,0 -0.423334,-0.02117 z"
       id="path4218"
       inkscape:connector-curvature="0" /><path
       style="fill:#3d6480;fill-opacity:1;fill-rule:nonzero;stroke:none"
       d="m 58.712531,17.343005 c -0.254,-0.08467 -0.402167,-0.275167 -0.4445,-0.529164 -0.0635,-0.338664 0.127,-0.656161 0.465666,-0.783161 0.08467,-0.02117 0.105834,-0.02117 0.232834,-0.04233 0.105833,0 0.127,0 0.211666,0.04233 0.148167,0.04233 0.296334,0.148166 0.381,0.253997 0.08467,0.148167 0.105834,0.211667 0.105834,0.42333 0,0.169334 0,0.169334 -0.04233,0.275167 -0.08467,0.169331 -0.211667,0.296331 -0.402167,0.359831 -0.0635,0.04232 -0.08467,0.04232 -0.232833,0.04232 l -0.169334,0 -0.105833,-0.04232 z"
       id="path4220"
       inkscape:connector-curvature="0" /><path
       style="fill:#3d6480;fill-opacity:1;fill-rule:nonzero;stroke:none"
       d="m 57.061539,17.639329 c -0.29633,-0.0635 -0.507994,-0.338658 -0.465661,-0.634988 0.02117,-0.465664 0.571495,-0.698497 0.952486,-0.423331 0.296333,0.211664 0.338667,0.656161 0.0635,0.888986 -0.148167,0.148167 -0.359825,0.211667 -0.550325,0.169333 z"
       id="path4222"
       inkscape:connector-curvature="0" /><path
       style="fill:#3d6480;fill-opacity:1;fill-rule:nonzero;stroke:none"
       d="m 57.421364,21.089468 c -0.253991,0 -0.296325,-0.02117 -0.359825,-0.04233 -0.0635,-0.02117 -0.190497,-0.105834 -0.23283,-0.169334 -0.08467,-0.105833 -0.08467,-0.105833 -0.08467,-0.910138 -0.02117,-0.783167 -0.02117,-0.783167 -0.08467,-0.867834 -0.04233,-0.0635 -0.148163,-0.148166 -0.211663,-0.148166 -0.02117,-0.02117 -0.08467,-0.02117 -0.148167,-0.02117 -0.0635,0 -0.148164,-0.02117 -0.190497,-0.02117 -0.127,-0.04233 -0.275164,-0.169333 -0.317498,-0.296333 -0.02117,-0.04233 -0.02117,-0.211667 -0.02117,-0.381 l -0.02117,-0.3175 0.571495,0 0.55033,0 0.105834,0.02117 c 0.317497,0.105833 0.550322,0.3175 0.698488,0.613833 0.08467,0.211667 0.08467,0.1905 0.08467,1.418167 0,1.121805 0,1.121805 -0.02117,1.121805 -0.02117,0 -0.169333,0 -0.3175,0 z"
       id="path4224"
       inkscape:connector-curvature="0" /><path
       style="fill:#3d6480;fill-opacity:1;fill-rule:nonzero;stroke:none"
       d="m 60.130697,20.327468 c 0,-0.423305 0.02117,-0.973639 0.02117,-1.185305 0.02117,-0.4445 0.02117,-0.4445 0.105805,-0.635 0.148167,-0.3175 0.508,-0.550334 0.846667,-0.592667 0.04233,0 0.3175,0 0.5715,0 l 0.486833,0 0,0.3175 c -0.02117,0.169333 -0.02117,0.338667 -0.04233,0.359833 -0.02117,0.08467 -0.105833,0.1905 -0.169333,0.254 -0.08467,0.04233 -0.169333,0.0635 -0.338667,0.08467 -0.0635,0 -0.148166,0.02117 -0.169333,0.02117 -0.0635,0.02117 -0.148167,0.08467 -0.1905,0.169334 l -0.0635,0.0635 -0.02117,0.656166 c 0,0.994806 0,0.910139 -0.08467,1.015972 -0.0635,0.105834 -0.1905,0.1905 -0.275166,0.211667 -0.04233,0 -0.211667,0.02117 -0.359834,0.02117 l -0.317472,0 0,-0.762 z"
       id="path4226"
       inkscape:connector-curvature="0" /></g></svg>