<?xml version="1.0" encoding="utf-8"?>
<!-- Generator: Adobe Illustrator 18.0.0, SVG Export Plug-In . SVG Version: 6.00 Build 0)  -->
<!DOCTYPE svg PUBLIC "-//W3C//DTD SVG 1.1//EN" "http://www.w3.org/Graphics/SVG/1.1/DTD/svg11.dtd">
<svg version="1.1" id="Layer_1" xmlns="http://www.w3.org/2000/svg" xmlns:xlink="http://www.w3.org/1999/xlink" x="0px" y="0px"
	 viewBox="0 0 16 16" enable-background="new 0 0 16 16" xml:space="preserve">
<polygon fill="#FFFFFF" points="10,6.4 8.5,5.2 7.8,4.7 7.8,3.8 7.9,1.9 6.3,3 5.6,3.5 4.8,3.1 3,2.4 3.6,4.3 3.8,5.1 3.2,5.8 
	2,7.3 3.9,7.3 4.8,7.4 5.3,8.1 6.3,9.7 7,7.9 7.3,7.1 8.1,6.9 "/>
<polygon fill="#FFFFFF" points="5.5,2.4 1.5,0.8 5.5,2.4 "/>
<g>
	<polygon fill="none" points="9.2,6.3 7.7,6.7 7,6.8 6.8,7.5 6.2,9 5.4,7.7 5,7.1 4.3,7 2.8,7 3.8,5.8 4.2,5.3 4,4.6 3.6,3.1 5,3.6 
		5.7,3.9 6.3,3.5 7.6,2.6 7.5,4.2 7.4,4.9 8,5.3 	"/>
	<path fill="#3D6480" d="M9,7.7l3.2-0.8L8.8,4.3L9.1,0L5.5,2.4l-4-1.6l1.2,4.1L0,8.2l4.3,0.2L6.6,12l1.1-3l7,7l1.3-1.3L9,7.7z
		 M6.8,7.5L6.2,9L5.4,7.7L5,7.1L4.3,7L2.8,7l1-1.2l0.5-0.5L4,4.6L3.6,3.1L5,3.6l0.7,0.3l0.6-0.4l1.3-0.9L7.5,4.2l0,0.7L8,5.3l1.2,1
		L7.7,6.7L7,6.8L6.8,7.5z"/>
</g>
</svg>
